<svg xmlns="http://www.w3.org/2000/svg" xmlns:xlink="http://www.w3.org/1999/xlink" viewBox="0 0 193 123"><path fill="#2D363B" d="M152.7 33.581H37.826a2.905 2.905 0 0 0-2.897 2.895v76.556h120.664V36.476a2.903 2.903 0 0 0-2.893-2.895z"/><rect x="40.299" y="38.569" fill="#FFF" width="110.048" height="70.709"/><path fill="#BCC7C7" d="M167.87 120.179H22.452c-.433 0-.864-.076-1.271-.226l-6.625-2.429h161.209l-6.625 2.429a3.696 3.696 0 0 1-1.27.226z"/><circle fill="#868789" cx="95.15" cy="36.569" r=".513"/><rect x="82.049" y="113.02" fill="#BCC7C7" width="26.124" height="2.653"/><path fill="#EDF1F1" d="M106.101 113.02v.234a1.944 1.944 0 0 1-1.938 1.938H86.076a1.941 1.941 0 0 1-1.936-1.936v-.236H14.557v4.503h161.209v-4.503h-69.665z"/><g><path fill="none" stroke="#E55525" stroke-width=".448" stroke-miterlimit="10" d="M104.539 76.635c-5.385.001-9.776-4.255-9.992-9.588 0-1.313 1.062-2.377 2.375-2.377s2.369 1.079 2.369 2.392v-.015c-.215 5.333-4.606 9.589-9.992 9.588"/><path fill="#04969A" d="M125.799 80.406c-.29 0-.586-.021-.877-.064-2.443-.349-4.077-2.103-4.993-3.453-.918 1.349-2.551 3.106-4.994 3.454-.29.042-.586.062-.877.062a5.77 5.77 0 0 1-4.017-1.592 5.362 5.362 0 0 1-1.681-3.904c0-1.483.598-2.87 1.682-3.907 1.071-1.026 2.498-1.59 4.018-1.59.29 0 .584.021.875.062 2.442.348 4.076 2.103 4.994 3.452.916-1.349 2.55-3.103 4.993-3.452.292-.042.586-.062.875-.062 1.519 0 2.945.565 4.017 1.59a5.368 5.368 0 0 1 1.68 3.907c0 1.481-.595 2.87-1.679 3.904a5.765 5.765 0 0 1-4.016 1.593m-4.787-5.496c.477.909 1.884 3.176 4.185 3.506.202.028.404.043.602.043 2.066 0 3.749-1.591 3.749-3.549s-1.682-3.55-3.75-3.55c-.197 0-.401.014-.6.043-2.302.329-3.71 2.596-4.186 3.507m-6.951-3.55c-2.07 0-3.752 1.592-3.752 3.55 0 1.957 1.681 3.549 3.749 3.549.198 0 .401-.015.602-.043 2.301-.329 3.708-2.596 4.186-3.506-.477-.909-1.885-3.178-4.186-3.506a4.184 4.184 0 0 0-.599-.044"/><rect x="112.49" y="74.372" fill="#04969A" width="3.422" height="1.103"/><polygon fill="#04969A" points="127.334,74.372 126.176,74.372 126.176,73.212 125.07,73.212 125.07,74.372 123.912,74.372 123.912,75.475 125.07,75.475 125.07,76.635 126.176,76.635 126.176,75.475 127.334,75.475"/><path fill="#F0C419" d="M119.928 90.573c-8.632 0-15.655-7.023-15.655-15.655s7.023-15.655 15.655-15.655 15.655 7.023 15.655 15.655c-.001 8.633-7.023 15.655-15.655 15.655zm0-30.74c-8.319 0-15.086 6.768-15.086 15.085 0 8.318 6.768 15.086 15.086 15.086s15.085-6.768 15.085-15.086c0-8.317-6.767-15.085-15.085-15.085z"/><g><path fill="#E5322A" d="M73.783 59.102s9.259-.417 14.167 8.889H72.996s-2.824-.093-5.232 3.334c-.694 1.435-1.435 2.917-.602 5.833-1.204-2.037-6.389-11.065-6.389-11.065s3.658-6.62 13.01-6.991z"/><path fill="#FCD900" d="M87.467 82.729s-4.27 8.226-14.783 7.822l7.479-12.95s1.493-2.399-.27-6.197c-.896-1.319-1.808-2.702-4.751-3.439 2.367-.023 12.777.001 12.777.001s3.905 6.48-.452 14.763z"/><path fill="#65B44A" d="M60.164 82.792s-4.989-7.812.618-16.714l7.474 12.952s1.331 2.492 5.502 2.865c1.59-.116 3.244-.215 5.353-2.394-1.163 2.061-6.391 11.064-6.391 11.064s-7.561.142-12.556-7.773z"/><path fill="#61AB47" d="M72.684 90.628l2.103-8.778s2.313-.181 4.251-2.307a5633.813 5633.813 0 0 1-6.354 11.085z"/><circle fill="#FFF" cx="73.744" cy="74.962" r="7.006"/><defs><circle id="a" cx="73.744" cy="74.962" r="5.834"/></defs><clipPath id="b"><use xlink:href="#a" overflow="visible"/></clipPath><rect x="67.91" y="69.128" clip-path="url(#b)" fill="#87BBE5" width="11.667" height=".082"/><defs><circle id="c" cx="73.744" cy="74.962" r="5.834"/></defs><clipPath id="d"><use xlink:href="#c" overflow="visible"/></clipPath><rect x="67.91" y="69.211" clip-path="url(#d)" fill="#87BBE5" width="11.667" height=".099"/><defs><circle id="e" cx="73.744" cy="74.962" r="5.834"/></defs><clipPath id="f"><use xlink:href="#e" overflow="visible"/></clipPath><rect x="67.91" y="69.31" clip-path="url(#f)" fill="#86BAE5" width="11.667" height=".099"/><defs><circle id="g" cx="73.744" cy="74.962" r="5.834"/></defs><clipPath id="h"><use xlink:href="#g" overflow="visible"/></clipPath><rect x="67.91" y="69.41" clip-path="url(#h)" fill="#85B9E4" width="11.667" height=".099"/><defs><circle id="i" cx="73.744" cy="74.962" r="5.834"/></defs><clipPath id="j"><use xlink:href="#i" overflow="visible"/></clipPath><rect x="67.91" y="69.509" clip-path="url(#j)" fill="#85B8E4" width="11.667" height=".099"/><defs><circle id="k" cx="73.744" cy="74.962" r="5.834"/></defs><clipPath id="l"><use xlink:href="#k" overflow="visible"/></clipPath><rect x="67.91" y="69.609" clip-path="url(#l)" fill="#84B8E3" width="11.667" height=".099"/><defs><circle id="m" cx="73.744" cy="74.962" r="5.834"/></defs><clipPath id="n"><use xlink:href="#m" overflow="visible"/></clipPath><rect x="67.91" y="69.708" clip-path="url(#n)" fill="#83B7E3" width="11.667" height=".099"/><defs><circle id="o" cx="73.744" cy="74.962" r="5.834"/></defs><clipPath id="p"><use xlink:href="#o" overflow="visible"/></clipPath><rect x="67.91" y="69.807" clip-path="url(#p)" fill="#82B6E2" width="11.667" height=".099"/><defs><circle id="q" cx="73.744" cy="74.962" r="5.834"/></defs><clipPath id="r"><use xlink:href="#q" overflow="visible"/></clipPath><rect x="67.91" y="69.907" clip-path="url(#r)" fill="#81B5E2" width="11.667" height=".099"/><defs><circle id="s" cx="73.744" cy="74.962" r="5.834"/></defs><clipPath id="t"><use xlink:href="#s" overflow="visible"/></clipPath><rect x="67.91" y="70.006" clip-path="url(#t)" fill="#80B4E1" width="11.667" height=".099"/><defs><circle id="u" cx="73.744" cy="74.962" r="5.834"/></defs><clipPath id="v"><use xlink:href="#u" overflow="visible"/></clipPath><rect x="67.91" y="70.106" clip-path="url(#v)" fill="#7FB3E0" width="11.667" height=".099"/><defs><circle id="w" cx="73.744" cy="74.962" r="5.834"/></defs><clipPath id="x"><use xlink:href="#w" overflow="visible"/></clipPath><rect x="67.91" y="70.205" clip-path="url(#x)" fill="#7EB3E0" width="11.667" height=".099"/><defs><circle id="y" cx="73.744" cy="74.962" r="5.834"/></defs><clipPath id="z"><use xlink:href="#y" overflow="visible"/></clipPath><rect x="67.91" y="70.305" clip-path="url(#z)" fill="#7DB2DF" width="11.667" height=".099"/><defs><circle id="A" cx="73.744" cy="74.962" r="5.834"/></defs><clipPath id="B"><use xlink:href="#A" overflow="visible"/></clipPath><rect x="67.91" y="70.404" clip-path="url(#B)" fill="#7DB1DF" width="11.667" height=".099"/><defs><circle id="C" cx="73.744" cy="74.962" r="5.834"/></defs><clipPath id="D"><use xlink:href="#C" overflow="visible"/></clipPath><rect x="67.91" y="70.503" clip-path="url(#D)" fill="#7CB0DE" width="11.667" height=".099"/><defs><circle id="E" cx="73.744" cy="74.962" r="5.834"/></defs><clipPath id="F"><use xlink:href="#E" overflow="visible"/></clipPath><rect x="67.91" y="70.603" clip-path="url(#F)" fill="#7BAFDE" width="11.667" height=".099"/><defs><circle id="G" cx="73.744" cy="74.962" r="5.834"/></defs><clipPath id="H"><use xlink:href="#G" overflow="visible"/></clipPath><rect x="67.91" y="70.702" clip-path="url(#H)" fill="#7AAFDD" width="11.667" height=".099"/><defs><circle id="I" cx="73.744" cy="74.962" r="5.834"/></defs><clipPath id="J"><use xlink:href="#I" overflow="visible"/></clipPath><rect x="67.91" y="70.802" clip-path="url(#J)" fill="#79AEDD" width="11.667" height=".099"/><defs><circle id="K" cx="73.744" cy="74.962" r="5.834"/></defs><clipPath id="L"><use xlink:href="#K" overflow="visible"/></clipPath><rect x="67.91" y="70.901" clip-path="url(#L)" fill="#78ADDC" width="11.667" height=".099"/><defs><circle id="M" cx="73.744" cy="74.962" r="5.834"/></defs><clipPath id="N"><use xlink:href="#M" overflow="visible"/></clipPath><rect x="67.91" y="71.001" clip-path="url(#N)" fill="#77ACDC" width="11.667" height=".099"/><defs><circle id="O" cx="73.744" cy="74.962" r="5.834"/></defs><clipPath id="P"><use xlink:href="#O" overflow="visible"/></clipPath><rect x="67.91" y="71.1" clip-path="url(#P)" fill="#76ABDB" width="11.667" height=".099"/><defs><circle id="Q" cx="73.744" cy="74.962" r="5.834"/></defs><clipPath id="R"><use xlink:href="#Q" overflow="visible"/></clipPath><rect x="67.91" y="71.199" clip-path="url(#R)" fill="#76AADB" width="11.667" height=".099"/><defs><circle id="S" cx="73.744" cy="74.962" r="5.834"/></defs><clipPath id="T"><use xlink:href="#S" overflow="visible"/></clipPath><rect x="67.91" y="71.299" clip-path="url(#T)" fill="#75AADA" width="11.667" height=".099"/><defs><circle id="U" cx="73.744" cy="74.962" r="5.834"/></defs><clipPath id="V"><use xlink:href="#U" overflow="visible"/></clipPath><rect x="67.91" y="71.398" clip-path="url(#V)" fill="#74A9DA" width="11.667" height=".099"/><defs><circle id="W" cx="73.744" cy="74.962" r="5.834"/></defs><clipPath id="X"><use xlink:href="#W" overflow="visible"/></clipPath><rect x="67.91" y="71.498" clip-path="url(#X)" fill="#73A8D9" width="11.667" height=".099"/><defs><circle id="Y" cx="73.744" cy="74.962" r="5.834"/></defs><clipPath id="Z"><use xlink:href="#Y" overflow="visible"/></clipPath><rect x="67.91" y="71.597" clip-path="url(#Z)" fill="#72A7D9" width="11.667" height=".099"/><defs><circle id="aa" cx="73.744" cy="74.962" r="5.834"/></defs><clipPath id="ab"><use xlink:href="#aa" overflow="visible"/></clipPath><rect x="67.91" y="71.697" clip-path="url(#ab)" fill="#71A6D8" width="11.667" height=".099"/><defs><circle id="ac" cx="73.744" cy="74.962" r="5.834"/></defs><clipPath id="ad"><use xlink:href="#ac" overflow="visible"/></clipPath><rect x="67.91" y="71.796" clip-path="url(#ad)" fill="#70A6D8" width="11.667" height=".099"/><defs><circle id="ae" cx="73.744" cy="74.962" r="5.834"/></defs><clipPath id="af"><use xlink:href="#ae" overflow="visible"/></clipPath><rect x="67.91" y="71.895" clip-path="url(#af)" fill="#70A5D7" width="11.667" height=".099"/><defs><circle id="ag" cx="73.744" cy="74.962" r="5.834"/></defs><clipPath id="ah"><use xlink:href="#ag" overflow="visible"/></clipPath><rect x="67.91" y="71.995" clip-path="url(#ah)" fill="#6FA4D7" width="11.667" height=".099"/><defs><circle id="ai" cx="73.744" cy="74.962" r="5.834"/></defs><clipPath id="aj"><use xlink:href="#ai" overflow="visible"/></clipPath><rect x="67.91" y="72.094" clip-path="url(#aj)" fill="#6EA3D6" width="11.667" height=".099"/><defs><circle id="ak" cx="73.744" cy="74.962" r="5.834"/></defs><clipPath id="al"><use xlink:href="#ak" overflow="visible"/></clipPath><rect x="67.91" y="72.194" clip-path="url(#al)" fill="#6DA3D6" width="11.667" height=".099"/><defs><circle id="am" cx="73.744" cy="74.962" r="5.834"/></defs><clipPath id="an"><use xlink:href="#am" overflow="visible"/></clipPath><rect x="67.91" y="72.293" clip-path="url(#an)" fill="#6CA2D5" width="11.667" height=".099"/><defs><circle id="ao" cx="73.744" cy="74.962" r="5.834"/></defs><clipPath id="ap"><use xlink:href="#ao" overflow="visible"/></clipPath><rect x="67.91" y="72.393" clip-path="url(#ap)" fill="#6BA1D5" width="11.667" height=".099"/><defs><circle id="aq" cx="73.744" cy="74.962" r="5.834"/></defs><clipPath id="ar"><use xlink:href="#aq" overflow="visible"/></clipPath><rect x="67.91" y="72.492" clip-path="url(#ar)" fill="#6BA0D4" width="11.667" height=".099"/><defs><circle id="as" cx="73.744" cy="74.962" r="5.834"/></defs><clipPath id="at"><use xlink:href="#as" overflow="visible"/></clipPath><rect x="67.91" y="72.591" clip-path="url(#at)" fill="#6A9FD4" width="11.667" height=".099"/><defs><circle id="au" cx="73.744" cy="74.962" r="5.834"/></defs><clipPath id="av"><use xlink:href="#au" overflow="visible"/></clipPath><rect x="67.91" y="72.691" clip-path="url(#av)" fill="#699FD3" width="11.667" height=".099"/><defs><circle id="aw" cx="73.744" cy="74.962" r="5.834"/></defs><clipPath id="ax"><use xlink:href="#aw" overflow="visible"/></clipPath><rect x="67.91" y="72.79" clip-path="url(#ax)" fill="#689ED3" width="11.667" height=".099"/><defs><circle id="ay" cx="73.744" cy="74.962" r="5.834"/></defs><clipPath id="az"><use xlink:href="#ay" overflow="visible"/></clipPath><rect x="67.91" y="72.89" clip-path="url(#az)" fill="#679DD3" width="11.667" height=".099"/><g><defs><circle id="aA" cx="73.744" cy="74.962" r="5.834"/></defs><clipPath id="aB"><use xlink:href="#aA" overflow="visible"/></clipPath><rect x="67.91" y="72.989" clip-path="url(#aB)" fill="#669CD2" width="11.667" height=".099"/></g><g><defs><circle id="aC" cx="73.744" cy="74.962" r="5.834"/></defs><clipPath id="aD"><use xlink:href="#aC" overflow="visible"/></clipPath><rect x="67.91" y="73.089" clip-path="url(#aD)" fill="#669CD2" width="11.667" height=".099"/></g><g><defs><circle id="aE" cx="73.744" cy="74.962" r="5.834"/></defs><clipPath id="aF"><use xlink:href="#aE" overflow="visible"/></clipPath><rect x="67.91" y="73.188" clip-path="url(#aF)" fill="#659BD1" width="11.667" height=".099"/></g><g><defs><circle id="aG" cx="73.744" cy="74.962" r="5.834"/></defs><clipPath id="aH"><use xlink:href="#aG" overflow="visible"/></clipPath><rect x="67.91" y="73.287" clip-path="url(#aH)" fill="#649AD1" width="11.667" height=".099"/></g><g><defs><circle id="aI" cx="73.744" cy="74.962" r="5.834"/></defs><clipPath id="aJ"><use xlink:href="#aI" overflow="visible"/></clipPath><rect x="67.91" y="73.387" clip-path="url(#aJ)" fill="#639AD0" width="11.667" height=".099"/></g><g><defs><circle id="aK" cx="73.744" cy="74.962" r="5.834"/></defs><clipPath id="aL"><use xlink:href="#aK" overflow="visible"/></clipPath><rect x="67.91" y="73.486" clip-path="url(#aL)" fill="#6299D0" width="11.667" height=".099"/></g><g><defs><circle id="aM" cx="73.744" cy="74.962" r="5.834"/></defs><clipPath id="aN"><use xlink:href="#aM" overflow="visible"/></clipPath><rect x="67.91" y="73.586" clip-path="url(#aN)" fill="#6198CF" width="11.667" height=".099"/></g><g><defs><circle id="aO" cx="73.744" cy="74.962" r="5.834"/></defs><clipPath id="aP"><use xlink:href="#aO" overflow="visible"/></clipPath><rect x="67.91" y="73.685" clip-path="url(#aP)" fill="#6097CF" width="11.667" height=".099"/></g><g><defs><circle id="aQ" cx="73.744" cy="74.962" r="5.834"/></defs><clipPath id="aR"><use xlink:href="#aQ" overflow="visible"/></clipPath><rect x="67.91" y="73.785" clip-path="url(#aR)" fill="#6097CE" width="11.667" height=".099"/></g><g><defs><circle id="aS" cx="73.744" cy="74.962" r="5.834"/></defs><clipPath id="aT"><use xlink:href="#aS" overflow="visible"/></clipPath><rect x="67.91" y="73.884" clip-path="url(#aT)" fill="#5F96CE" width="11.667" height=".099"/></g><g><defs><circle id="aU" cx="73.744" cy="74.962" r="5.834"/></defs><clipPath id="aV"><use xlink:href="#aU" overflow="visible"/></clipPath><rect x="67.91" y="73.983" clip-path="url(#aV)" fill="#5E95CD" width="11.667" height=".099"/></g><g><defs><circle id="aW" cx="73.744" cy="74.962" r="5.834"/></defs><clipPath id="aX"><use xlink:href="#aW" overflow="visible"/></clipPath><rect x="67.91" y="74.083" clip-path="url(#aX)" fill="#5D94CD" width="11.667" height=".099"/></g><g><defs><circle id="aY" cx="73.744" cy="74.962" r="5.834"/></defs><clipPath id="aZ"><use xlink:href="#aY" overflow="visible"/></clipPath><rect x="67.91" y="74.182" clip-path="url(#aZ)" fill="#5C94CC" width="11.667" height=".099"/></g><g><defs><circle id="ba" cx="73.744" cy="74.962" r="5.834"/></defs><clipPath id="bb"><use xlink:href="#ba" overflow="visible"/></clipPath><rect x="67.91" y="74.282" clip-path="url(#bb)" fill="#5B93CC" width="11.667" height=".099"/></g><g><defs><circle id="bc" cx="73.744" cy="74.962" r="5.834"/></defs><clipPath id="bd"><use xlink:href="#bc" overflow="visible"/></clipPath><rect x="67.91" y="74.381" clip-path="url(#bd)" fill="#5A92CB" width="11.667" height=".099"/></g><g><defs><circle id="be" cx="73.744" cy="74.962" r="5.834"/></defs><clipPath id="bf"><use xlink:href="#be" overflow="visible"/></clipPath><rect x="67.91" y="74.481" clip-path="url(#bf)" fill="#5991CB" width="11.667" height=".099"/></g><g><defs><circle id="bg" cx="73.744" cy="74.962" r="5.834"/></defs><clipPath id="bh"><use xlink:href="#bg" overflow="visible"/></clipPath><rect x="67.91" y="74.58" clip-path="url(#bh)" fill="#5991CA" width="11.667" height=".099"/></g><g><defs><circle id="bi" cx="73.744" cy="74.962" r="5.834"/></defs><clipPath id="bj"><use xlink:href="#bi" overflow="visible"/></clipPath><rect x="67.91" y="74.679" clip-path="url(#bj)" fill="#5890CA" width="11.667" height=".099"/></g><g><defs><circle id="bk" cx="73.744" cy="74.962" r="5.834"/></defs><clipPath id="bl"><use xlink:href="#bk" overflow="visible"/></clipPath><rect x="67.91" y="74.779" clip-path="url(#bl)" fill="#578FCA" width="11.667" height=".099"/></g><g><defs><circle id="bm" cx="73.744" cy="74.962" r="5.834"/></defs><clipPath id="bn"><use xlink:href="#bm" overflow="visible"/></clipPath><rect x="67.91" y="74.878" clip-path="url(#bn)" fill="#568FC9" width="11.667" height=".099"/></g><g><defs><circle id="bo" cx="73.744" cy="74.962" r="5.834"/></defs><clipPath id="bp"><use xlink:href="#bo" overflow="visible"/></clipPath><rect x="67.91" y="74.978" clip-path="url(#bp)" fill="#558EC9" width="11.667" height=".099"/></g><g><defs><circle id="bq" cx="73.744" cy="74.962" r="5.834"/></defs><clipPath id="br"><use xlink:href="#bq" overflow="visible"/></clipPath><rect x="67.91" y="75.077" clip-path="url(#br)" fill="#548DC8" width="11.667" height=".099"/></g><g><defs><circle id="bs" cx="73.744" cy="74.962" r="5.834"/></defs><clipPath id="bt"><use xlink:href="#bs" overflow="visible"/></clipPath><rect x="67.91" y="75.177" clip-path="url(#bt)" fill="#538DC8" width="11.667" height=".099"/></g><g><defs><circle id="bu" cx="73.744" cy="74.962" r="5.834"/></defs><clipPath id="bv"><use xlink:href="#bu" overflow="visible"/></clipPath><rect x="67.91" y="75.276" clip-path="url(#bv)" fill="#528CC7" width="11.667" height=".099"/></g><g><defs><circle id="bw" cx="73.744" cy="74.962" r="5.834"/></defs><clipPath id="bx"><use xlink:href="#bw" overflow="visible"/></clipPath><rect x="67.91" y="75.375" clip-path="url(#bx)" fill="#518BC7" width="11.667" height=".099"/></g><g><defs><circle id="by" cx="73.744" cy="74.962" r="5.834"/></defs><clipPath id="bz"><use xlink:href="#by" overflow="visible"/></clipPath><rect x="67.91" y="75.475" clip-path="url(#bz)" fill="#518AC6" width="11.667" height=".099"/></g><g><defs><circle id="bA" cx="73.744" cy="74.962" r="5.834"/></defs><clipPath id="bB"><use xlink:href="#bA" overflow="visible"/></clipPath><rect x="67.91" y="75.574" clip-path="url(#bB)" fill="#508AC6" width="11.667" height=".099"/></g><g><defs><circle id="bC" cx="73.744" cy="74.962" r="5.834"/></defs><clipPath id="bD"><use xlink:href="#bC" overflow="visible"/></clipPath><rect x="67.91" y="75.674" clip-path="url(#bD)" fill="#4F89C6" width="11.667" height=".099"/></g><g><defs><circle id="bE" cx="73.744" cy="74.962" r="5.834"/></defs><clipPath id="bF"><use xlink:href="#bE" overflow="visible"/></clipPath><rect x="67.91" y="75.773" clip-path="url(#bF)" fill="#4E88C5" width="11.667" height=".099"/></g><g><defs><circle id="bG" cx="73.744" cy="74.962" r="5.834"/></defs><clipPath id="bH"><use xlink:href="#bG" overflow="visible"/></clipPath><rect x="67.91" y="75.873" clip-path="url(#bH)" fill="#4D88C5" width="11.667" height=".099"/></g><g><defs><circle id="bI" cx="73.744" cy="74.962" r="5.834"/></defs><clipPath id="bJ"><use xlink:href="#bI" overflow="visible"/></clipPath><rect x="67.91" y="75.972" clip-path="url(#bJ)" fill="#4C87C4" width="11.667" height=".099"/></g><g><defs><circle id="bK" cx="73.744" cy="74.962" r="5.834"/></defs><clipPath id="bL"><use xlink:href="#bK" overflow="visible"/></clipPath><rect x="67.91" y="76.071" clip-path="url(#bL)" fill="#4B86C4" width="11.667" height=".099"/></g><g><defs><circle id="bM" cx="73.744" cy="74.962" r="5.834"/></defs><clipPath id="bN"><use xlink:href="#bM" overflow="visible"/></clipPath><rect x="67.91" y="76.171" clip-path="url(#bN)" fill="#4A86C3" width="11.667" height=".099"/></g><g><defs><circle id="bO" cx="73.744" cy="74.962" r="5.834"/></defs><clipPath id="bP"><use xlink:href="#bO" overflow="visible"/></clipPath><rect x="67.91" y="76.27" clip-path="url(#bP)" fill="#4985C3" width="11.667" height=".099"/></g><g><defs><circle id="bQ" cx="73.744" cy="74.962" r="5.834"/></defs><clipPath id="bR"><use xlink:href="#bQ" overflow="visible"/></clipPath><rect x="67.91" y="76.37" clip-path="url(#bR)" fill="#4884C3" width="11.667" height=".099"/></g><g><defs><circle id="bS" cx="73.744" cy="74.962" r="5.834"/></defs><clipPath id="bT"><use xlink:href="#bS" overflow="visible"/></clipPath><rect x="67.91" y="76.469" clip-path="url(#bT)" fill="#4784C2" width="11.667" height=".099"/></g><g><defs><circle id="bU" cx="73.744" cy="74.962" r="5.834"/></defs><clipPath id="bV"><use xlink:href="#bU" overflow="visible"/></clipPath><rect x="67.91" y="76.569" clip-path="url(#bV)" fill="#4683C2" width="11.667" height=".099"/></g><g><defs><circle id="bW" cx="73.744" cy="74.962" r="5.834"/></defs><clipPath id="bX"><use xlink:href="#bW" overflow="visible"/></clipPath><rect x="67.91" y="76.668" clip-path="url(#bX)" fill="#4583C1" width="11.667" height=".099"/></g><g><defs><circle id="bY" cx="73.744" cy="74.962" r="5.834"/></defs><clipPath id="bZ"><use xlink:href="#bY" overflow="visible"/></clipPath><rect x="67.91" y="76.767" clip-path="url(#bZ)" fill="#4482C1" width="11.667" height=".099"/></g><g><defs><circle id="ca" cx="73.744" cy="74.962" r="5.834"/></defs><clipPath id="cb"><use xlink:href="#ca" overflow="visible"/></clipPath><rect x="67.91" y="76.867" clip-path="url(#cb)" fill="#4381C0" width="11.667" height=".099"/></g><g><defs><circle id="cc" cx="73.744" cy="74.962" r="5.834"/></defs><clipPath id="cd"><use xlink:href="#cc" overflow="visible"/></clipPath><rect x="67.91" y="76.966" clip-path="url(#cd)" fill="#4281C0" width="11.667" height=".099"/></g><g><defs><circle id="ce" cx="73.744" cy="74.962" r="5.834"/></defs><clipPath id="cf"><use xlink:href="#ce" overflow="visible"/></clipPath><rect x="67.91" y="77.066" clip-path="url(#cf)" fill="#4180C0" width="11.667" height=".099"/></g><g><defs><circle id="cg" cx="73.744" cy="74.962" r="5.834"/></defs><clipPath id="ch"><use xlink:href="#cg" overflow="visible"/></clipPath><rect x="67.91" y="77.165" clip-path="url(#ch)" fill="#407FBF" width="11.667" height=".099"/></g><g><defs><circle id="ci" cx="73.744" cy="74.962" r="5.834"/></defs><clipPath id="cj"><use xlink:href="#ci" overflow="visible"/></clipPath><rect x="67.91" y="77.265" clip-path="url(#cj)" fill="#3F7FBF" width="11.667" height=".099"/></g><g><defs><circle id="ck" cx="73.744" cy="74.962" r="5.834"/></defs><clipPath id="cl"><use xlink:href="#ck" overflow="visible"/></clipPath><rect x="67.91" y="77.364" clip-path="url(#cl)" fill="#3E7EBE" width="11.667" height=".099"/></g><g><defs><circle id="cm" cx="73.744" cy="74.962" r="5.834"/></defs><clipPath id="cn"><use xlink:href="#cm" overflow="visible"/></clipPath><rect x="67.91" y="77.463" clip-path="url(#cn)" fill="#3D7EBE" width="11.667" height=".099"/></g><g><defs><circle id="co" cx="73.744" cy="74.962" r="5.834"/></defs><clipPath id="cp"><use xlink:href="#co" overflow="visible"/></clipPath><rect x="67.91" y="77.563" clip-path="url(#cp)" fill="#3C7DBE" width="11.667" height=".099"/></g><g><defs><circle id="cq" cx="73.744" cy="74.962" r="5.834"/></defs><clipPath id="cr"><use xlink:href="#cq" overflow="visible"/></clipPath><rect x="67.91" y="77.662" clip-path="url(#cr)" fill="#3B7CBD" width="11.667" height=".099"/></g><g><defs><circle id="cs" cx="73.744" cy="74.962" r="5.834"/></defs><clipPath id="ct"><use xlink:href="#cs" overflow="visible"/></clipPath><rect x="67.91" y="77.762" clip-path="url(#ct)" fill="#3A7CBD" width="11.667" height=".099"/></g><g><defs><circle id="cu" cx="73.744" cy="74.962" r="5.834"/></defs><clipPath id="cv"><use xlink:href="#cu" overflow="visible"/></clipPath><rect x="67.91" y="77.861" clip-path="url(#cv)" fill="#397BBC" width="11.667" height=".099"/></g><g><defs><circle id="cw" cx="73.744" cy="74.962" r="5.834"/></defs><clipPath id="cx"><use xlink:href="#cw" overflow="visible"/></clipPath><rect x="67.91" y="77.961" clip-path="url(#cx)" fill="#387ABC" width="11.667" height=".099"/></g><g><defs><circle id="cy" cx="73.744" cy="74.962" r="5.834"/></defs><clipPath id="cz"><use xlink:href="#cy" overflow="visible"/></clipPath><rect x="67.91" y="78.06" clip-path="url(#cz)" fill="#367ABC" width="11.667" height=".099"/></g><g><defs><circle id="cA" cx="73.744" cy="74.962" r="5.834"/></defs><clipPath id="cB"><use xlink:href="#cA" overflow="visible"/></clipPath><rect x="67.91" y="78.16" clip-path="url(#cB)" fill="#3579BB" width="11.667" height=".099"/></g><g><defs><circle id="cC" cx="73.744" cy="74.962" r="5.834"/></defs><clipPath id="cD"><use xlink:href="#cC" overflow="visible"/></clipPath><rect x="67.91" y="78.259" clip-path="url(#cD)" fill="#3479BB" width="11.667" height=".099"/></g><g><defs><circle id="cE" cx="73.744" cy="74.962" r="5.834"/></defs><clipPath id="cF"><use xlink:href="#cE" overflow="visible"/></clipPath><rect x="67.91" y="78.358" clip-path="url(#cF)" fill="#3378BA" width="11.667" height=".099"/></g><g><defs><circle id="cG" cx="73.744" cy="74.962" r="5.834"/></defs><clipPath id="cH"><use xlink:href="#cG" overflow="visible"/></clipPath><rect x="67.91" y="78.458" clip-path="url(#cH)" fill="#3277BA" width="11.667" height=".099"/></g><g><defs><circle id="cI" cx="73.744" cy="74.962" r="5.834"/></defs><clipPath id="cJ"><use xlink:href="#cI" overflow="visible"/></clipPath><rect x="67.91" y="78.557" clip-path="url(#cJ)" fill="#3077BA" width="11.667" height=".099"/></g><g><defs><circle id="cK" cx="73.744" cy="74.962" r="5.834"/></defs><clipPath id="cL"><use xlink:href="#cK" overflow="visible"/></clipPath><rect x="67.91" y="78.657" clip-path="url(#cL)" fill="#2F76B9" width="11.667" height=".099"/></g><g><defs><circle id="cM" cx="73.744" cy="74.962" r="5.834"/></defs><clipPath id="cN"><use xlink:href="#cM" overflow="visible"/></clipPath><rect x="67.91" y="78.756" clip-path="url(#cN)" fill="#2E76B9" width="11.667" height=".099"/></g><g><defs><circle id="cO" cx="73.744" cy="74.962" r="5.834"/></defs><clipPath id="cP"><use xlink:href="#cO" overflow="visible"/></clipPath><rect x="67.91" y="78.856" clip-path="url(#cP)" fill="#2D75B8" width="11.667" height=".099"/></g><g><defs><circle id="cQ" cx="73.744" cy="74.962" r="5.834"/></defs><clipPath id="cR"><use xlink:href="#cQ" overflow="visible"/></clipPath><rect x="67.91" y="78.955" clip-path="url(#cR)" fill="#2B75B8" width="11.667" height=".099"/></g><g><defs><circle id="cS" cx="73.744" cy="74.962" r="5.834"/></defs><clipPath id="cT"><use xlink:href="#cS" overflow="visible"/></clipPath><rect x="67.91" y="79.054" clip-path="url(#cT)" fill="#2A74B8" width="11.667" height=".099"/></g><g><defs><circle id="cU" cx="73.744" cy="74.962" r="5.834"/></defs><clipPath id="cV"><use xlink:href="#cU" overflow="visible"/></clipPath><rect x="67.91" y="79.154" clip-path="url(#cV)" fill="#2973B7" width="11.667" height=".099"/></g><g><defs><circle id="cW" cx="73.744" cy="74.962" r="5.834"/></defs><clipPath id="cX"><use xlink:href="#cW" overflow="visible"/></clipPath><rect x="67.91" y="79.253" clip-path="url(#cX)" fill="#2773B7" width="11.667" height=".099"/></g><g><defs><circle id="cY" cx="73.744" cy="74.962" r="5.834"/></defs><clipPath id="cZ"><use xlink:href="#cY" overflow="visible"/></clipPath><rect x="67.91" y="79.353" clip-path="url(#cZ)" fill="#2672B7" width="11.667" height=".099"/></g><g><defs><circle id="da" cx="73.744" cy="74.962" r="5.834"/></defs><clipPath id="db"><use xlink:href="#da" overflow="visible"/></clipPath><rect x="67.91" y="79.452" clip-path="url(#db)" fill="#2472B6" width="11.667" height=".099"/></g><g><defs><circle id="dc" cx="73.744" cy="74.962" r="5.834"/></defs><clipPath id="dd"><use xlink:href="#dc" overflow="visible"/></clipPath><rect x="67.91" y="79.552" clip-path="url(#dd)" fill="#2371B6" width="11.667" height=".099"/></g><g><defs><circle id="de" cx="73.744" cy="74.962" r="5.834"/></defs><clipPath id="df"><use xlink:href="#de" overflow="visible"/></clipPath><rect x="67.91" y="79.651" clip-path="url(#df)" fill="#2171B6" width="11.667" height=".099"/></g><g><defs><circle id="dg" cx="73.744" cy="74.962" r="5.834"/></defs><clipPath id="dh"><use xlink:href="#dg" overflow="visible"/></clipPath><rect x="67.91" y="79.75" clip-path="url(#dh)" fill="#2070B5" width="11.667" height=".099"/></g><g><defs><circle id="di" cx="73.744" cy="74.962" r="5.834"/></defs><clipPath id="dj"><use xlink:href="#di" overflow="visible"/></clipPath><rect x="67.91" y="79.85" clip-path="url(#dj)" fill="#1E70B5" width="11.667" height=".099"/></g><g><defs><circle id="dk" cx="73.744" cy="74.962" r="5.834"/></defs><clipPath id="dl"><use xlink:href="#dk" overflow="visible"/></clipPath><rect x="67.91" y="79.949" clip-path="url(#dl)" fill="#1C6FB5" width="11.667" height=".099"/></g><g><defs><circle id="dm" cx="73.744" cy="74.962" r="5.834"/></defs><clipPath id="dn"><use xlink:href="#dm" overflow="visible"/></clipPath><rect x="67.91" y="80.049" clip-path="url(#dn)" fill="#1A6FB4" width="11.667" height=".099"/></g><g><defs><circle id="do" cx="73.744" cy="74.962" r="5.834"/></defs><clipPath id="dp"><use xlink:href="#do" overflow="visible"/></clipPath><rect x="67.91" y="80.148" clip-path="url(#dp)" fill="#186EB4" width="11.667" height=".099"/></g><g><defs><circle id="dq" cx="73.744" cy="74.962" r="5.834"/></defs><clipPath id="dr"><use xlink:href="#dq" overflow="visible"/></clipPath><rect x="67.91" y="80.248" clip-path="url(#dr)" fill="#166DB3" width="11.667" height=".099"/></g><g><defs><circle id="ds" cx="73.744" cy="74.962" r="5.834"/></defs><clipPath id="dt"><use xlink:href="#ds" overflow="visible"/></clipPath><rect x="67.91" y="80.347" clip-path="url(#dt)" fill="#146DB3" width="11.667" height=".099"/></g><g><defs><circle id="du" cx="73.744" cy="74.962" r="5.834"/></defs><clipPath id="dv"><use xlink:href="#du" overflow="visible"/></clipPath><rect x="67.91" y="80.446" clip-path="url(#dv)" fill="#146DB3" width="11.667" height=".349"/></g><g><path fill="#F0CE16" d="M87.92 67.967l-8.662 2.54s-1.306-1.917-4.115-2.541c2.434-.009 12.777.001 12.777.001z"/></g><g><path fill="#D93227" d="M66.993 76.843c-1.217-2.108-6.22-10.75-6.22-10.75l6.416 6.347s-.659 1.356-.409 3.294l.213 1.109z"/></g></g></g><g><circle fill="#F0C419" cx="160.939" cy="32.017" r="29.781"/><g fill="#FFF"><path d="M145.176 18.666v.893c.986.031 1.77.234 2.35.532l-.361 1.033c-.469-.345-1.221-.579-1.988-.626v3.178c1.316.548 2.756 1.174 2.756 2.834 0 1.315-1.189 2.238-2.756 2.426v.861h-.75v-.83c-1.158-.016-2.145-.313-2.756-.689l.391-1.018c.549.392 1.488.752 2.365.783v-3.538c-1.27-.533-2.568-1.112-2.568-2.583 0-1.284 1.08-2.176 2.568-2.333v-.924h.749v.001zm-.75 4.681v-2.802c-.846.125-1.395.563-1.395 1.284.001.735.596 1.142 1.395 1.518zm.75 1.487v3.163c.861-.141 1.566-.595 1.566-1.378.001-.893-.705-1.378-1.566-1.785zM158.059 23.863c0 2.505-.689 5.511-3.961 5.511-2.584 0-3.836-1.8-3.836-5.041 0-2.912.877-5.433 3.945-5.433 2.756 0 3.852 1.926 3.852 4.963zm-1.283.173c0-1.926-.283-4.055-2.678-4.055-2.066 0-2.553 2.02-2.553 4.008 0 2.16.299 4.32 2.646 4.32 2.177 0 2.585-2.238 2.585-4.273zM161.391 27.84c.469 0 .83.235.83.767 0 .517-.33.767-.83.767-.518 0-.814-.25-.814-.767-.001-.501.312-.767.814-.767zM167.996 18.9c2.613 0 3.553 1.973 3.553 4.853 0 3.522-2.066 5.605-5.416 5.605-.344 0-.705-.016-1.08-.063v-1.127c.359.062.736.094 1.08.094 2.176 0 3.977-1.189 4.117-3.851-.721.47-1.58.814-2.646.814-1.674 0-3.006-.955-3.006-2.865 0-2.066 1.238-3.46 3.398-3.46zm.016 5.245c.924 0 1.754-.392 2.27-.814-.031-1.816-.484-3.366-2.41-3.366-1.426 0-2.004 1.065-2.004 2.192 0 1.393.671 1.988 2.144 1.988zM177.276 18.9c2.615 0 3.555 1.973 3.555 4.853 0 3.522-2.066 5.605-5.416 5.605-.346 0-.705-.016-1.082-.063v-1.127c.361.062.736.094 1.082.094 2.176 0 3.975-1.189 4.117-3.851-.721.47-1.582.814-2.646.814-1.676 0-3.006-.955-3.006-2.865-.001-2.066 1.236-3.46 3.396-3.46zm.015 5.245a3.71 3.71 0 0 0 2.271-.814c-.031-1.816-.486-3.366-2.412-3.366-1.424 0-2.004 1.065-2.004 2.192.001 1.393.675 1.988 2.145 1.988zM146.795 36.953l-.734 2.039-1.785 4.433h-1.078l-1.785-4.217-.822-2.115v6.333h-.951v-8.232h1.166l1.949 4.623 1.002 2.622.963-2.571 1.898-4.674h1.141v8.232h-.963l-.001-6.473zM157.729 39.321c0 2.457-1.482 4.23-3.799 4.23-2.432 0-3.711-1.609-3.711-4.205 0-2.482 1.406-4.268 3.773-4.268 2.407 0 3.737 1.546 3.737 4.243zm-1.102 0c0-2.14-.785-3.356-2.635-3.356-1.861 0-2.684 1.229-2.684 3.381 0 2.052.721 3.318 2.621 3.318 1.825.001 2.698-1.329 2.698-3.343zM161.164 43.424h-.988v-8.232h1.078l3.291 4.724 1.293 1.925-.014-1.596v-5.054h.977v8.232h-1.027l-3.305-4.749-1.316-1.976.012 1.824v4.902h-.001zM174.909 36.091h-2.557v7.333h-1.027v-7.333h-2.57v-.899h6.154v.899zM182.979 35.192v8.232h-1.025V39.65h-4.064v3.774h-1.027v-8.232h1.027v3.534h4.064v-3.534h1.025z"/></g></g></svg>